<svg xmlns="http://www.w3.org/2000/svg" width="1600" height="900" viewBox="0 0 1600 900">
  <defs>
    <pattern id="paper" width="18" height="18" patternUnits="userSpaceOnUse">
      <path d="M 18 0 L 0 0 0 18" fill="none" stroke="#f2ead8" stroke-width="0.8" opacity="0.25"/>
    </pattern>
    <filter id="roughen">
      <feTurbulence type="fractalNoise" baseFrequency="0.018" numOctaves="1" result="noise"/>
      <feDisplacementMap in="SourceGraphic" in2="noise" scale="0.85"/>
    </filter>
    <marker id="arrow-normal" markerWidth="12" markerHeight="12" refX="10" refY="6" orient="auto" markerUnits="strokeWidth"><path d="M2,2 L10,6 L2,10 z" fill="#111111"/></marker>
    <marker id="arrow-trust" markerWidth="12" markerHeight="12" refX="10" refY="6" orient="auto" markerUnits="strokeWidth"><path d="M2,2 L10,6 L2,10 z" fill="#1e66b1"/></marker>
    <marker id="arrow-control" markerWidth="12" markerHeight="12" refX="10" refY="6" orient="auto" markerUnits="strokeWidth"><path d="M2,2 L10,6 L2,10 z" fill="#2e7d32"/></marker>
    <marker id="arrow-risk" markerWidth="12" markerHeight="12" refX="10" refY="6" orient="auto" markerUnits="strokeWidth"><path d="M2,2 L10,6 L2,10 z" fill="#d71920"/></marker>
  </defs>
  <rect width="1600" height="900" fill="#fffdf7"/>
  <rect width="1600" height="900" fill="url(#paper)"/>
  <text x="800" y="58" text-anchor="middle" font-size="40" font-family="Comic Sans MS, Segoe Print, Arial" font-weight="700">Fundamentals of Authentication and</text>
  <path d="M540 78 C650 92, 940 90, 1060 78" fill="none" stroke="#d9a300" stroke-width="5" stroke-linecap="round"/>
  
  <path d="M346,167 C325,164 320,172 322,191 L321,399 C322,420 328,426 346,424 L1254,427 C1273,426 1281,417 1278,399 L1281,191 C1280,172 1272,165 1254,166 Z" fill="none" stroke="#2e7d32" stroke-width="4"/>
<text x="800" y="207" text-anchor="middle" font-size="24" fill="#555555" font-family="Comic Sans MS, Segoe Print, Arial">legitimate path</text>
<path d="M346,522 C325,519 320,527 322,546 L321,749 C322,770 328,776 346,774 L1254,777 C1273,776 1281,767 1278,749 L1281,546 C1280,527 1272,520 1254,521 Z" fill="none" stroke="#d71920" stroke-width="4" stroke-dasharray="14 12"/>
<text x="800" y="562" text-anchor="middle" font-size="24" fill="#555555" font-family="Comic Sans MS, Segoe Print, Arial">attack/risk path</text>
  <path d="M250,440 L290,440 L290,422 L330,422" fill="none" stroke="#d71920" stroke-width="4" stroke-dasharray="12 10" marker-end="url(#arrow-risk)" stroke-linecap="round" stroke-linejoin="round"/>
<rect x="210" y="403" width="160" height="30" rx="10" fill="#fffdf7" opacity="0.94"/>
<text x="290" y="423" text-anchor="middle" font-size="17" font-family="Comic Sans MS, Segoe Print, Arial"><tspan x="290" dy="0">Weak password /</tspan><tspan x="290" dy="21">Brute</tspan></text>
<path d="M440,495 L440,575 L698,575 L698,655" fill="none" stroke="#111111" stroke-width="4" marker-end="url(#arrow-normal)" stroke-linecap="round" stroke-linejoin="round"/>
<rect x="489" y="547" width="160" height="30" rx="10" fill="#fffdf7" opacity="0.94"/>
<text x="569" y="567" text-anchor="middle" font-size="17" font-family="Comic Sans MS, Segoe Print, Arial"><tspan x="569" dy="0">Verify</tspan><tspan x="569" dy="21">credentials</tspan></text>
<path d="M698,655 L698,575 L440,575 L440,495" fill="none" stroke="#d71920" stroke-width="4" stroke-dasharray="12 10" marker-end="url(#arrow-risk)" stroke-linecap="round" stroke-linejoin="round"/>
<rect x="489" y="547" width="160" height="30" rx="10" fill="#fffdf7" opacity="0.94"/>
<text x="569" y="567" text-anchor="middle" font-size="17" font-family="Comic Sans MS, Segoe Print, Arial"><tspan x="569" dy="0">Plaintext / weak</tspan><tspan x="569" dy="21">hash</tspan></text>
<path d="M550,422 L663,422 L663,422 L776,422" fill="none" stroke="#111111" stroke-width="4" marker-end="url(#arrow-normal)" stroke-linecap="round" stroke-linejoin="round"/>
<rect x="583" y="394" width="160" height="30" rx="10" fill="#fffdf7" opacity="0.94"/>
<text x="663" y="414" text-anchor="middle" font-size="17" font-family="Comic Sans MS, Segoe Print, Arial"><tspan x="663" dy="0">Create session</tspan></text>
<path d="M996,422 L998,422 L998,422 L1000,422" fill="none" stroke="#d71920" stroke-width="4" stroke-dasharray="12 10" marker-end="url(#arrow-risk)" stroke-linecap="round" stroke-linejoin="round"/>
<rect x="918" y="394" width="160" height="30" rx="10" fill="#fffdf7" opacity="0.94"/>
<text x="998" y="414" text-anchor="middle" font-size="17" font-family="Comic Sans MS, Segoe Print, Arial"><tspan x="998" dy="0">Predictable</tspan><tspan x="998" dy="21">token / No</tspan></text>
<path d="M250,440 L401,440 L401,422 L553,422" fill="none" stroke="#d71920" stroke-width="4" stroke-dasharray="12 10" marker-end="url(#arrow-risk)" stroke-linecap="round" stroke-linejoin="round"/>
<rect x="321" y="402" width="160" height="30" rx="10" fill="#fffdf7" opacity="0.94"/>
<text x="401" y="422" text-anchor="middle" font-size="17" font-family="Comic Sans MS, Segoe Print, Arial"><tspan x="401" dy="0">Direct object</tspan><tspan x="401" dy="21">reference /</tspan></text>
<path d="M1000,422 L886,422 L886,422 L773,422" fill="none" stroke="#d71920" stroke-width="4" stroke-dasharray="12 10" marker-end="url(#arrow-risk)" stroke-linecap="round" stroke-linejoin="round"/>
<rect x="806" y="394" width="160" height="30" rx="10" fill="#fffdf7" opacity="0.94"/>
<text x="886" y="414" text-anchor="middle" font-size="17" font-family="Comic Sans MS, Segoe Print, Arial"><tspan x="886" dy="0">Client-side only</tspan><tspan x="886" dy="21">/ Flawed</tspan></text>
<path d="M663,495 L663,575 L956,575 L956,655" fill="none" stroke="#d71920" stroke-width="4" stroke-dasharray="12 10" marker-end="url(#arrow-risk)" stroke-linecap="round" stroke-linejoin="round"/>
<rect x="729" y="547" width="160" height="30" rx="10" fill="#fffdf7" opacity="0.94"/>
<text x="809" y="567" text-anchor="middle" font-size="17" font-family="Comic Sans MS, Segoe Print, Arial"><tspan x="809" dy="0">Access granted /</tspan><tspan x="809" dy="21">No</tspan></text>
<path d="M440,495 L440,575 L440,575 L440,655" fill="none" stroke="#d71920" stroke-width="4" stroke-dasharray="12 10" marker-end="url(#arrow-risk)" stroke-linecap="round" stroke-linejoin="round"/>
<rect x="360" y="547" width="160" height="30" rx="10" fill="#fffdf7" opacity="0.94"/>
<text x="440" y="567" text-anchor="middle" font-size="17" font-family="Comic Sans MS, Segoe Print, Arial"><tspan x="440" dy="0">Insufficient</tspan><tspan x="440" dy="21">logging</tspan></text>
  <path d="M86,385 C71,382 66,390 68,403 L67,493 C68,508 74,514 86,512 L236,515 C249,514 257,505 254,493 L257,403 C256,390 248,383 236,384 Z" fill="#000000" opacity="0.08"/>
<path d="M80,377 C65,374 60,382 62,395 L61,485 C62,500 68,506 80,504 L230,507 C243,506 251,497 248,485 L251,395 C250,382 242,375 230,376 Z" fill="#eef6ff" stroke="#1e66b1" stroke-width="4" filter="url(#roughen)"/>
<circle cx="149" cy="411" r="10" fill="none" stroke="#111111" stroke-width="3"/><path d="M133,439 C139,421 159,421 165,439" fill="none" stroke="#111111" stroke-width="3"/>
<text x="155" y="471" text-anchor="middle" font-size="24" font-family="Comic Sans MS, Segoe Print, Arial"><tspan x="155" dy="0">Attacker</tspan></text>
<path d="M356,360 C341,357 336,365 338,378 L337,483 C338,498 344,504 356,502 L536,505 C549,504 557,495 554,483 L557,378 C556,365 548,358 536,359 Z" fill="#000000" opacity="0.08"/>
<path d="M350,352 C335,349 330,357 332,370 L331,475 C332,490 338,496 350,494 L530,497 C543,496 551,487 548,475 L551,370 C550,357 542,350 530,351 Z" fill="#fff4df" stroke="#df7c18" stroke-width="4" filter="url(#roughen)"/>
<rect x="421" y="392" width="34" height="28" rx="4" fill="none" stroke="#111111" stroke-width="3"/><path d="M428,392 v-8 C428,372 448,372 448,384 v8" fill="none" stroke="#111111" stroke-width="3"/>
<text x="440" y="461" text-anchor="middle" font-size="24" font-family="Comic Sans MS, Segoe Print, Arial"><tspan x="440" dy="0">Auth Endpoint</tspan></text>
<path d="M802,360 C787,357 782,365 784,378 L783,483 C784,498 790,504 802,502 L982,505 C995,504 1003,495 1000,483 L1003,378 C1002,365 994,358 982,359 Z" fill="#000000" opacity="0.08"/>
<path d="M796,352 C781,349 776,357 778,370 L777,475 C778,490 784,496 796,494 L976,497 C989,496 997,487 994,475 L997,370 C996,357 988,350 976,351 Z" fill="#fff4df" stroke="#df7c18" stroke-width="4" filter="url(#roughen)"/>
<circle cx="877" cy="394" r="10" fill="none" stroke="#111111" stroke-width="3"/><path d="M887,394 H910 M900,394 v9 M907,394 v7" stroke="#111111" stroke-width="3"/>
<text x="886" y="461" text-anchor="middle" font-size="24" font-family="Comic Sans MS, Segoe Print, Arial"><tspan x="886" dy="0">Session Manager</tspan></text>
<path d="M1026,360 C1011,357 1006,365 1008,378 L1007,483 C1008,498 1014,504 1026,502 L1206,505 C1219,504 1227,495 1224,483 L1227,378 C1226,365 1218,358 1206,359 Z" fill="#000000" opacity="0.08"/>
<path d="M1020,352 C1005,349 1000,357 1002,370 L1001,475 C1002,490 1008,496 1020,494 L1200,497 C1213,496 1221,487 1218,475 L1221,370 C1220,357 1212,350 1200,351 Z" fill="#fff4df" stroke="#df7c18" stroke-width="4" filter="url(#roughen)"/>
<path d="M1108,374 L1128,382 C1125,406 1117,417 1108,422 C1099,417 1091,406 1088,382 Z" fill="none" stroke="#111111" stroke-width="3"/>
<text x="1110" y="461" text-anchor="middle" font-size="24" font-family="Comic Sans MS, Segoe Print, Arial"><tspan x="1110" dy="0">Authz Enforcer</tspan></text>
<path d="M609,665 C594,662 589,670 591,683 L590,763 C591,778 597,784 609,782 L799,785 C812,784 820,775 817,763 L820,683 C819,670 811,663 799,664 Z" fill="#000000" opacity="0.08"/>
<path d="M603,657 C588,654 583,662 585,675 L584,755 C585,770 591,776 603,774 L793,777 C806,776 814,767 811,755 L814,675 C813,662 805,655 793,656 Z" fill="#eef9ea" stroke="#2e7d32" stroke-width="4" filter="url(#roughen)"/>
<ellipse cx="698" cy="687" rx="20" ry="8" fill="none" stroke="#111111" stroke-width="3"/><path d="M678,687 v30 C678,727 718,727 718,717 v-30" fill="none" stroke="#111111" stroke-width="3"/><path d="M678,702 C678,712 718,712 718,702" fill="none" stroke="#111111" stroke-width="3"/>
<text x="698" y="741" text-anchor="middle" font-size="24" font-family="Comic Sans MS, Segoe Print, Arial"><tspan x="698" dy="0">Credential Store</tspan></text>
<path d="M579,360 C564,357 559,365 561,378 L560,483 C561,498 567,504 579,502 L759,505 C772,504 780,495 777,483 L780,378 C779,365 771,358 759,359 Z" fill="#000000" opacity="0.08"/>
<path d="M573,352 C558,349 553,357 555,370 L554,475 C555,490 561,496 573,494 L753,497 C766,496 774,487 771,475 L774,370 C773,357 765,350 753,351 Z" fill="#fff4df" stroke="#df7c18" stroke-width="4" filter="url(#roughen)"/>
<rect x="646" y="380" width="34" height="34" rx="6" fill="none" stroke="#111111" stroke-width="3"/>
<text x="663" y="461" text-anchor="middle" font-size="24" font-family="Comic Sans MS, Segoe Print, Arial"><tspan x="663" dy="0">Resource API</tspan></text>
<path d="M351,665 C336,662 331,670 333,683 L332,763 C333,778 339,784 351,782 L541,785 C554,784 562,775 559,763 L562,683 C561,670 553,663 541,664 Z" fill="#000000" opacity="0.08"/>
<path d="M345,657 C330,654 325,662 327,675 L326,755 C327,770 333,776 345,774 L535,777 C548,776 556,767 553,755 L556,675 C555,662 547,655 535,656 Z" fill="#eef9ea" stroke="#2e7d32" stroke-width="4" filter="url(#roughen)"/>
<ellipse cx="440" cy="687" rx="20" ry="8" fill="none" stroke="#111111" stroke-width="3"/><path d="M420,687 v30 C420,727 460,727 460,717 v-30" fill="none" stroke="#111111" stroke-width="3"/><path d="M420,702 C420,712 460,712 460,702" fill="none" stroke="#111111" stroke-width="3"/>
<text x="440" y="741" text-anchor="middle" font-size="24" font-family="Comic Sans MS, Segoe Print, Arial"><tspan x="440" dy="0">Auth Logs</tspan></text>
<path d="M867,665 C852,662 847,670 849,683 L848,763 C849,778 855,784 867,782 L1057,785 C1070,784 1078,775 1075,763 L1078,683 C1077,670 1069,663 1057,664 Z" fill="#000000" opacity="0.08"/>
<path d="M861,657 C846,654 841,662 843,675 L842,755 C843,770 849,776 861,774 L1051,777 C1064,776 1072,767 1069,755 L1072,675 C1071,662 1063,655 1051,656 Z" fill="#eef9ea" stroke="#2e7d32" stroke-width="4" filter="url(#roughen)"/>
<ellipse cx="956" cy="687" rx="20" ry="8" fill="none" stroke="#111111" stroke-width="3"/><path d="M936,687 v30 C936,727 976,727 976,717 v-30" fill="none" stroke="#111111" stroke-width="3"/><path d="M936,702 C936,712 976,712 976,702" fill="none" stroke="#111111" stroke-width="3"/>
<text x="956" y="741" text-anchor="middle" font-size="24" font-family="Comic Sans MS, Segoe Print, Arial"><tspan x="956" dy="0">Protected Data</tspan></text>
  <path d="M1264,612 C1255,609 1250,617 1252,624 L1251,658 C1252,667 1258,673 1264,671 L1516,674 C1523,673 1531,664 1528,658 L1531,624 C1530,617 1522,610 1516,611 Z" fill="#fef8df" stroke="#d9a300" stroke-width="3" filter="url(#roughen)"/>
<text x="1390" y="649" text-anchor="middle" font-size="18" font-family="Comic Sans MS, Segoe Print, Arial"><tspan x="1390" dy="0">Authentication: who</tspan><tspan x="1390" dy="22">are you?</tspan></text>
<path d="M1264,694 C1255,691 1250,699 1252,706 L1251,740 C1252,749 1258,755 1264,753 L1516,756 C1523,755 1531,746 1528,740 L1531,706 C1530,699 1522,692 1516,693 Z" fill="#fef8df" stroke="#d9a300" stroke-width="3" filter="url(#roughen)"/>
<text x="1390" y="731" text-anchor="middle" font-size="18" font-family="Comic Sans MS, Segoe Print, Arial"><tspan x="1390" dy="0">Weak credential</tspan><tspan x="1390" dy="22">storage +</tspan></text>
  <path d="M61,792 C50,789 45,797 47,806 L46,879 C47,890 53,896 61,894 L409,897 C418,896 426,887 423,879 L426,806 C425,797 417,790 409,791 Z" fill="#ffffff" stroke="#777777" stroke-width="3"/>
<line x1="70" y1="816" x2="130" y2="816" stroke="#111111" stroke-width="4" marker-end="url(#arrow-normal)"/>
<text x="150" y="822" font-size="17" font-family="Comic Sans MS, Segoe Print, Arial">normal flow</text>
<line x1="70" y1="836" x2="130" y2="836" stroke="#1e66b1" stroke-width="4" marker-end="url(#arrow-trust)"/>
<text x="150" y="842" font-size="17" font-family="Comic Sans MS, Segoe Print, Arial">trust/config</text>
<line x1="70" y1="856" x2="130" y2="856" stroke="#2e7d32" stroke-width="4" marker-end="url(#arrow-control)"/>
<text x="150" y="862" font-size="17" font-family="Comic Sans MS, Segoe Print, Arial">control/success</text>
<line x1="70" y1="876" x2="130" y2="876" stroke="#d71920" stroke-width="4" stroke-dasharray="10 8" marker-end="url(#arrow-risk)"/>
<text x="150" y="882" font-size="17" font-family="Comic Sans MS, Segoe Print, Arial">attack/risk</text>
</svg>
