<svg xmlns="http://www.w3.org/2000/svg" width="1600" height="900" viewBox="0 0 1600 900">
  <defs>
    <pattern id="paper" width="18" height="18" patternUnits="userSpaceOnUse">
      <path d="M 18 0 L 0 0 0 18" fill="none" stroke="#f2ead8" stroke-width="0.8" opacity="0.25"/>
    </pattern>
    <filter id="roughen">
      <feTurbulence type="fractalNoise" baseFrequency="0.018" numOctaves="1" result="noise"/>
      <feDisplacementMap in="SourceGraphic" in2="noise" scale="0.85"/>
    </filter>
    <marker id="arrow-normal" markerWidth="12" markerHeight="12" refX="10" refY="6" orient="auto" markerUnits="strokeWidth"><path d="M2,2 L10,6 L2,10 z" fill="#111111"/></marker>
    <marker id="arrow-trust" markerWidth="12" markerHeight="12" refX="10" refY="6" orient="auto" markerUnits="strokeWidth"><path d="M2,2 L10,6 L2,10 z" fill="#1e66b1"/></marker>
    <marker id="arrow-control" markerWidth="12" markerHeight="12" refX="10" refY="6" orient="auto" markerUnits="strokeWidth"><path d="M2,2 L10,6 L2,10 z" fill="#2e7d32"/></marker>
    <marker id="arrow-risk" markerWidth="12" markerHeight="12" refX="10" refY="6" orient="auto" markerUnits="strokeWidth"><path d="M2,2 L10,6 L2,10 z" fill="#d71920"/></marker>
  </defs>
  <rect width="1600" height="900" fill="#fffdf7"/>
  <rect width="1600" height="900" fill="url(#paper)"/>
  <text x="800" y="58" text-anchor="middle" font-size="40" font-family="Comic Sans MS, Segoe Print, Arial" font-weight="700">Fundamentals of Authentication and</text>
  <path d="M540 78 C650 92, 940 90, 1060 78" fill="none" stroke="#d9a300" stroke-width="5" stroke-linecap="round"/>
  <rect x="48" y="105" width="1504" height="150" rx="26" fill="#fef8df" opacity="0.28" stroke="#d9a300" stroke-width="2" stroke-dasharray="8 12"/>
<text x="92" y="139" font-size="22" fill="#d9a300" font-family="Comic Sans MS, Segoe Print, Arial" font-weight="700">Security / Governance</text>
<rect x="48" y="305" width="1504" height="150" rx="26" fill="#fff4df" opacity="0.28" stroke="#df7c18" stroke-width="2" stroke-dasharray="8 12"/>
<text x="92" y="339" font-size="22" fill="#df7c18" font-family="Comic Sans MS, Segoe Print, Arial" font-weight="700">Application / Processing</text>
<rect x="48" y="625" width="1504" height="150" rx="26" fill="#eef9ea" opacity="0.28" stroke="#2e7d32" stroke-width="2" stroke-dasharray="8 12"/>
<text x="92" y="659" font-size="22" fill="#2e7d32" font-family="Comic Sans MS, Segoe Print, Arial" font-weight="700">Data / Telemetry</text>
  <path d="M326,262 C305,259 300,267 302,286 L301,594 C302,615 308,621 326,619 L1234,622 C1253,621 1261,612 1258,594 L1261,286 C1260,267 1252,260 1234,261 Z" fill="none" stroke="#777777" stroke-width="4" stroke-dasharray="14 12"/>
<text x="780" y="302" text-anchor="middle" font-size="24" fill="#555555" font-family="Comic Sans MS, Segoe Print, Arial">User/Client</text>
  <path d="M250,440 L290,440 L290,422 L330,422" fill="none" stroke="#111111" stroke-width="4" marker-end="url(#arrow-normal)" stroke-linecap="round" stroke-linejoin="round"/>
<rect x="210" y="403" width="160" height="30" rx="10" fill="#fffdf7" opacity="0.94"/>
<text x="290" y="423" text-anchor="middle" font-size="17" font-family="Comic Sans MS, Segoe Print, Arial"><tspan x="290" dy="0">request</tspan></text>
<path d="M550,422 L775,422 L775,422 L1000,422" fill="none" stroke="#111111" stroke-width="4" marker-end="url(#arrow-normal)" stroke-linecap="round" stroke-linejoin="round"/>
<rect x="695" y="394" width="160" height="30" rx="10" fill="#fffdf7" opacity="0.94"/>
<text x="775" y="414" text-anchor="middle" font-size="17" font-family="Comic Sans MS, Segoe Print, Arial"><tspan x="775" dy="0">decision</tspan></text>
<path d="M440,235 L440,292 L440,292 L440,350" fill="none" stroke="#1e66b1" stroke-width="4" marker-end="url(#arrow-trust)" stroke-linecap="round" stroke-linejoin="round"/>
<rect x="360" y="264" width="160" height="30" rx="10" fill="#fffdf7" opacity="0.94"/>
<text x="440" y="284" text-anchor="middle" font-size="17" font-family="Comic Sans MS, Segoe Print, Arial"><tspan x="440" dy="0">identity</tspan></text>
<path d="M1110,235 L1110,292 L1110,292 L1110,350" fill="none" stroke="#1e66b1" stroke-width="4" marker-end="url(#arrow-trust)" stroke-linecap="round" stroke-linejoin="round"/>
<rect x="1030" y="264" width="160" height="30" rx="10" fill="#fffdf7" opacity="0.94"/>
<text x="1110" y="284" text-anchor="middle" font-size="17" font-family="Comic Sans MS, Segoe Print, Arial"><tspan x="1110" dy="0">policy</tspan></text>
<path d="M1185,235 L1185,292 L1110,292 L1110,350" fill="none" stroke="#1e66b1" stroke-width="4" marker-end="url(#arrow-trust)" stroke-linecap="round" stroke-linejoin="round"/>
<rect x="1067" y="264" width="160" height="30" rx="10" fill="#fffdf7" opacity="0.94"/>
<text x="1147" y="284" text-anchor="middle" font-size="17" font-family="Comic Sans MS, Segoe Print, Arial"><tspan x="1147" dy="0">identity</tspan></text>
<path d="M440,495 L440,575 L440,575 L440,655" fill="none" stroke="#2e7d32" stroke-width="4" marker-end="url(#arrow-control)" stroke-linecap="round" stroke-linejoin="round"/>
<rect x="360" y="547" width="160" height="30" rx="10" fill="#fffdf7" opacity="0.94"/>
<text x="440" y="567" text-anchor="middle" font-size="17" font-family="Comic Sans MS, Segoe Print, Arial"><tspan x="440" dy="0">lookup</tspan></text>
<path d="M440,495 L440,575 L698,575 L698,655" fill="none" stroke="#2e7d32" stroke-width="4" marker-end="url(#arrow-control)" stroke-linecap="round" stroke-linejoin="round"/>
<rect x="489" y="547" width="160" height="30" rx="10" fill="#fffdf7" opacity="0.94"/>
<text x="569" y="567" text-anchor="middle" font-size="17" font-family="Comic Sans MS, Segoe Print, Arial"><tspan x="569" dy="0">logs</tspan></text>
<path d="M440,495 L440,575 L722,575 L722,655" fill="none" stroke="#2e7d32" stroke-width="4" marker-end="url(#arrow-control)" stroke-linecap="round" stroke-linejoin="round"/>
<rect x="501" y="547" width="160" height="30" rx="10" fill="#fffdf7" opacity="0.94"/>
<text x="581" y="567" text-anchor="middle" font-size="17" font-family="Comic Sans MS, Segoe Print, Arial"><tspan x="581" dy="0">lookup</tspan></text>
  <path d="M86,385 C71,382 66,390 68,403 L67,493 C68,508 74,514 86,512 L236,515 C249,514 257,505 254,493 L257,403 C256,390 248,383 236,384 Z" fill="#000000" opacity="0.08"/>
<path d="M80,377 C65,374 60,382 62,395 L61,485 C62,500 68,506 80,504 L230,507 C243,506 251,497 248,485 L251,395 C250,382 242,375 230,376 Z" fill="#eef6ff" stroke="#1e66b1" stroke-width="4" filter="url(#roughen)"/>
<circle cx="149" cy="411" r="10" fill="none" stroke="#111111" stroke-width="3"/><path d="M133,439 C139,421 159,421 165,439" fill="none" stroke="#111111" stroke-width="3"/>
<text x="155" y="471" text-anchor="middle" font-size="24" font-family="Comic Sans MS, Segoe Print, Arial"><tspan x="155" dy="0">User</tspan></text>
<path d="M1026,360 C1011,357 1006,365 1008,378 L1007,483 C1008,498 1014,504 1026,502 L1206,505 C1219,504 1227,495 1224,483 L1227,378 C1226,365 1218,358 1206,359 Z" fill="#000000" opacity="0.08"/>
<path d="M1020,352 C1005,349 1000,357 1002,370 L1001,475 C1002,490 1008,496 1020,494 L1200,497 C1213,496 1221,487 1218,475 L1221,370 C1220,357 1212,350 1200,351 Z" fill="#fff4df" stroke="#df7c18" stroke-width="4" filter="url(#roughen)"/>
<rect x="1093" y="380" width="34" height="34" rx="6" fill="none" stroke="#111111" stroke-width="3"/>
<text x="1110" y="461" text-anchor="middle" font-size="24" font-family="Comic Sans MS, Segoe Print, Arial"><tspan x="1110" dy="0">Application</tspan></text>
<path d="M371,125 C356,122 351,130 353,143 L352,223 C353,238 359,244 371,242 L521,245 C534,244 542,235 539,223 L542,143 C541,130 533,123 521,124 Z" fill="#000000" opacity="0.08"/>
<path d="M365,117 C350,114 345,122 347,135 L346,215 C347,230 353,236 365,234 L515,237 C528,236 536,227 533,215 L536,135 C535,122 527,115 515,116 Z" fill="#fef8df" stroke="#d9a300" stroke-width="4" filter="url(#roughen)"/>
<path d="M438,139 L458,147 C455,171 447,182 438,187 C429,182 421,171 418,147 Z" fill="none" stroke="#111111" stroke-width="3"/>
<text x="440" y="201" text-anchor="middle" font-size="24" font-family="Comic Sans MS, Segoe Print, Arial"><tspan x="440" dy="0">Identity</tspan><tspan x="440" dy="28">Provider</tspan></text>
<path d="M351,665 C336,662 331,670 333,683 L332,763 C333,778 339,784 351,782 L541,785 C554,784 562,775 559,763 L562,683 C561,670 553,663 541,664 Z" fill="#000000" opacity="0.08"/>
<path d="M345,657 C330,654 325,662 327,675 L326,755 C327,770 333,776 345,774 L535,777 C548,776 556,767 553,755 L556,675 C555,662 547,655 535,656 Z" fill="#eef9ea" stroke="#2e7d32" stroke-width="4" filter="url(#roughen)"/>
<ellipse cx="440" cy="687" rx="20" ry="8" fill="none" stroke="#111111" stroke-width="3"/><path d="M420,687 v30 C420,727 460,727 460,717 v-30" fill="none" stroke="#111111" stroke-width="3"/><path d="M420,702 C420,712 460,712 460,702" fill="none" stroke="#111111" stroke-width="3"/>
<text x="440" y="741" text-anchor="middle" font-size="24" font-family="Comic Sans MS, Segoe Print, Arial"><tspan x="440" dy="0">User Database</tspan></text>
<path d="M1116,125 C1101,122 1096,130 1098,143 L1097,223 C1098,238 1104,244 1116,242 L1266,245 C1279,244 1287,235 1284,223 L1287,143 C1286,130 1278,123 1266,124 Z" fill="#000000" opacity="0.08"/>
<path d="M1110,117 C1095,114 1090,122 1092,135 L1091,215 C1092,230 1098,236 1110,234 L1260,237 C1273,236 1281,227 1278,215 L1281,135 C1280,122 1272,115 1260,116 Z" fill="#fef8df" stroke="#d9a300" stroke-width="4" filter="url(#roughen)"/>
<rect x="1166" y="157" width="34" height="28" rx="4" fill="none" stroke="#111111" stroke-width="3"/><path d="M1173,157 v-8 C1173,137 1193,137 1193,149 v8" fill="none" stroke="#111111" stroke-width="3"/>
<text x="1185" y="201" text-anchor="middle" font-size="24" font-family="Comic Sans MS, Segoe Print, Arial"><tspan x="1185" dy="0">Token Validator</tspan></text>
<path d="M1041,125 C1026,122 1021,130 1023,143 L1022,223 C1023,238 1029,244 1041,242 L1191,245 C1204,244 1212,235 1209,223 L1212,143 C1211,130 1203,123 1191,124 Z" fill="#000000" opacity="0.08"/>
<path d="M1035,117 C1020,114 1015,122 1017,135 L1016,215 C1017,230 1023,236 1035,234 L1185,237 C1198,236 1206,227 1203,215 L1206,135 C1205,122 1197,115 1185,116 Z" fill="#fef8df" stroke="#d9a300" stroke-width="4" filter="url(#roughen)"/>
<path d="M1108,139 L1128,147 C1125,171 1117,182 1108,187 C1099,182 1091,171 1088,147 Z" fill="none" stroke="#111111" stroke-width="3"/>
<text x="1110" y="201" text-anchor="middle" font-size="24" font-family="Comic Sans MS, Segoe Print, Arial"><tspan x="1110" dy="0">Authorization</tspan><tspan x="1110" dy="28">Service</tspan></text>
<path d="M633,665 C618,662 613,670 615,683 L614,763 C615,778 621,784 633,782 L823,785 C836,784 844,775 841,763 L844,683 C843,670 835,663 823,664 Z" fill="#000000" opacity="0.08"/>
<path d="M627,657 C612,654 607,662 609,675 L608,755 C609,770 615,776 627,774 L817,777 C830,776 838,767 835,755 L838,675 C837,662 829,655 817,656 Z" fill="#f5f0ff" stroke="#5e3c99" stroke-width="4" filter="url(#roughen)"/>
<circle cx="722" cy="701" r="13" fill="none" stroke="#111111" stroke-width="3"/><circle cx="722" cy="701" r="4" fill="#111111"/><path d="M722,679v9 M722,714v9 M700,701h9 M735,701h9" stroke="#111111" stroke-width="3"/>
<text x="722" y="741" text-anchor="middle" font-size="24" font-family="Comic Sans MS, Segoe Print, Arial"><tspan x="722" dy="0">API Gateway</tspan></text>
<path d="M356,360 C341,357 336,365 338,378 L337,483 C338,498 344,504 356,502 L536,505 C549,504 557,495 554,483 L557,378 C556,365 548,358 536,359 Z" fill="#000000" opacity="0.08"/>
<path d="M350,352 C335,349 330,357 332,370 L331,475 C332,490 338,496 350,494 L530,497 C543,496 551,487 548,475 L551,370 C550,357 542,350 530,351 Z" fill="#fff4df" stroke="#df7c18" stroke-width="4" filter="url(#roughen)"/>
<rect x="423" y="380" width="34" height="34" rx="6" fill="none" stroke="#111111" stroke-width="3"/>
<text x="440" y="461" text-anchor="middle" font-size="24" font-family="Comic Sans MS, Segoe Print, Arial"><tspan x="440" dy="0">Protected Resource</tspan></text>
<path d="M609,665 C594,662 589,670 591,683 L590,763 C591,778 597,784 609,782 L799,785 C812,784 820,775 817,763 L820,683 C819,670 811,663 799,664 Z" fill="#000000" opacity="0.08"/>
<path d="M603,657 C588,654 583,662 585,675 L584,755 C585,770 591,776 603,774 L793,777 C806,776 814,767 811,755 L814,675 C813,662 805,655 793,656 Z" fill="#eef9ea" stroke="#2e7d32" stroke-width="4" filter="url(#roughen)"/>
<ellipse cx="698" cy="687" rx="20" ry="8" fill="none" stroke="#111111" stroke-width="3"/><path d="M678,687 v30 C678,727 718,727 718,717 v-30" fill="none" stroke="#111111" stroke-width="3"/><path d="M678,702 C678,712 718,712 718,702" fill="none" stroke="#111111" stroke-width="3"/>
<text x="698" y="741" text-anchor="middle" font-size="24" font-family="Comic Sans MS, Segoe Print, Arial"><tspan x="698" dy="0">Audit Log</tspan></text>
  <path d="M1264,612 C1255,609 1250,617 1252,624 L1251,658 C1252,667 1258,673 1264,671 L1516,674 C1523,673 1531,664 1528,658 L1531,624 C1530,617 1522,610 1516,611 Z" fill="#fef8df" stroke="#d9a300" stroke-width="3" filter="url(#roughen)"/>
<text x="1390" y="649" text-anchor="middle" font-size="18" font-family="Comic Sans MS, Segoe Print, Arial"><tspan x="1390" dy="0">Authentication: who</tspan><tspan x="1390" dy="22">are you?</tspan></text>
<path d="M1264,694 C1255,691 1250,699 1252,706 L1251,740 C1252,749 1258,755 1264,753 L1516,756 C1523,755 1531,746 1528,740 L1531,706 C1530,699 1522,692 1516,693 Z" fill="#fef8df" stroke="#d9a300" stroke-width="3" filter="url(#roughen)"/>
<text x="1390" y="731" text-anchor="middle" font-size="18" font-family="Comic Sans MS, Segoe Print, Arial"><tspan x="1390" dy="0">Token-based flow</tspan><tspan x="1390" dy="22">enables stateless</tspan></text>
  <path d="M61,792 C50,789 45,797 47,806 L46,879 C47,890 53,896 61,894 L409,897 C418,896 426,887 423,879 L426,806 C425,797 417,790 409,791 Z" fill="#ffffff" stroke="#777777" stroke-width="3"/>
<line x1="70" y1="816" x2="130" y2="816" stroke="#111111" stroke-width="4" marker-end="url(#arrow-normal)"/>
<text x="150" y="822" font-size="17" font-family="Comic Sans MS, Segoe Print, Arial">normal flow</text>
<line x1="70" y1="836" x2="130" y2="836" stroke="#1e66b1" stroke-width="4" marker-end="url(#arrow-trust)"/>
<text x="150" y="842" font-size="17" font-family="Comic Sans MS, Segoe Print, Arial">trust/config</text>
<line x1="70" y1="856" x2="130" y2="856" stroke="#2e7d32" stroke-width="4" marker-end="url(#arrow-control)"/>
<text x="150" y="862" font-size="17" font-family="Comic Sans MS, Segoe Print, Arial">control/success</text>
<line x1="70" y1="876" x2="130" y2="876" stroke="#d71920" stroke-width="4" stroke-dasharray="10 8" marker-end="url(#arrow-risk)"/>
<text x="150" y="882" font-size="17" font-family="Comic Sans MS, Segoe Print, Arial">attack/risk</text>
</svg>
