<svg xmlns="http://www.w3.org/2000/svg" width="1600" height="900" viewBox="0 0 1600 900">
  <defs>
    <pattern id="paper" width="18" height="18" patternUnits="userSpaceOnUse">
      <path d="M 18 0 L 0 0 0 18" fill="none" stroke="#f2ead8" stroke-width="0.8" opacity="0.25"/>
    </pattern>
    <filter id="roughen">
      <feTurbulence type="fractalNoise" baseFrequency="0.018" numOctaves="1" result="noise"/>
      <feDisplacementMap in="SourceGraphic" in2="noise" scale="0.85"/>
    </filter>
    <marker id="arrow-normal" markerWidth="12" markerHeight="12" refX="10" refY="6" orient="auto" markerUnits="strokeWidth"><path d="M2,2 L10,6 L2,10 z" fill="#111111"/></marker>
    <marker id="arrow-trust" markerWidth="12" markerHeight="12" refX="10" refY="6" orient="auto" markerUnits="strokeWidth"><path d="M2,2 L10,6 L2,10 z" fill="#1e66b1"/></marker>
    <marker id="arrow-control" markerWidth="12" markerHeight="12" refX="10" refY="6" orient="auto" markerUnits="strokeWidth"><path d="M2,2 L10,6 L2,10 z" fill="#2e7d32"/></marker>
    <marker id="arrow-risk" markerWidth="12" markerHeight="12" refX="10" refY="6" orient="auto" markerUnits="strokeWidth"><path d="M2,2 L10,6 L2,10 z" fill="#d71920"/></marker>
  </defs>
  <rect width="1600" height="900" fill="#fffdf7"/>
  <rect width="1600" height="900" fill="url(#paper)"/>
  <text x="800" y="58" text-anchor="middle" font-size="40" font-family="Comic Sans MS, Segoe Print, Arial" font-weight="700">Fundamentals of Authentication and</text>
  <path d="M540 78 C650 92, 940 90, 1060 78" fill="none" stroke="#d9a300" stroke-width="5" stroke-linecap="round"/>
  
  <path d="M326,262 C305,259 300,267 302,286 L301,594 C302,615 308,621 326,619 L1234,622 C1253,621 1261,612 1258,594 L1261,286 C1260,267 1252,260 1234,261 Z" fill="none" stroke="#777777" stroke-width="4" stroke-dasharray="14 12"/>
<text x="780" y="302" text-anchor="middle" font-size="24" fill="#555555" font-family="Comic Sans MS, Segoe Print, Arial">Unauthenticated User</text>
  <path d="M155,375 L155,305 L775,305 L775,235" fill="none" stroke="#111111" stroke-width="4" marker-end="url(#arrow-normal)" stroke-linecap="round" stroke-linejoin="round"/>
<rect x="385" y="277" width="160" height="30" rx="10" fill="#fffdf7" opacity="0.94"/>
<text x="465" y="297" text-anchor="middle" font-size="17" font-family="Comic Sans MS, Segoe Print, Arial"><tspan x="465" dy="0">Verify Identity</tspan></text>
<path d="M870,175 L884,175 L884,175 L898,175" fill="none" stroke="#2e7d32" stroke-width="4" marker-end="url(#arrow-control)" stroke-linecap="round" stroke-linejoin="round"/>
<rect x="804" y="147" width="160" height="30" rx="10" fill="#fffdf7" opacity="0.94"/>
<text x="884" y="167" text-anchor="middle" font-size="17" font-family="Comic Sans MS, Segoe Print, Arial"><tspan x="884" dy="0">Challenge</tspan><tspan x="884" dy="21">Factors</tspan></text>
<path d="M898,175 L884,175 L884,175 L870,175" fill="none" stroke="#1e66b1" stroke-width="4" marker-end="url(#arrow-trust)" stroke-linecap="round" stroke-linejoin="round"/>
<rect x="804" y="147" width="160" height="30" rx="10" fill="#fffdf7" opacity="0.94"/>
<text x="884" y="167" text-anchor="middle" font-size="17" font-family="Comic Sans MS, Segoe Print, Arial"><tspan x="884" dy="0">Factor Verified</tspan></text>
<path d="M870,175 L980,175 L980,175 L1090,175" fill="none" stroke="#1e66b1" stroke-width="4" marker-end="url(#arrow-trust)" stroke-linecap="round" stroke-linejoin="round"/>
<rect x="900" y="147" width="160" height="30" rx="10" fill="#fffdf7" opacity="0.94"/>
<text x="980" y="167" text-anchor="middle" font-size="17" font-family="Comic Sans MS, Segoe Print, Arial"><tspan x="980" dy="0">Identity</tspan><tspan x="980" dy="21">Confirmed</tspan></text>
<path d="M1090,175 L1185,175 L1185,175 L1280,175" fill="none" stroke="#2e7d32" stroke-width="4" marker-end="url(#arrow-control)" stroke-linecap="round" stroke-linejoin="round"/>
<rect x="1105" y="147" width="160" height="30" rx="10" fill="#fffdf7" opacity="0.94"/>
<text x="1185" y="167" text-anchor="middle" font-size="17" font-family="Comic Sans MS, Segoe Print, Arial"><tspan x="1185" dy="0">Check</tspan><tspan x="1185" dy="21">Permissions</tspan></text>
<path d="M1090,175 L1185,175 L1185,175 L1280,175" fill="none" stroke="#2e7d32" stroke-width="4" marker-end="url(#arrow-control)" stroke-linecap="round" stroke-linejoin="round"/>
<rect x="1105" y="147" width="160" height="30" rx="10" fill="#fffdf7" opacity="0.94"/>
<text x="1185" y="167" text-anchor="middle" font-size="17" font-family="Comic Sans MS, Segoe Print, Arial"><tspan x="1185" dy="0">Enforce PoLP</tspan></text>
<path d="M1185,235 L1185,292 L775,292 L775,350" fill="none" stroke="#1e66b1" stroke-width="4" marker-end="url(#arrow-trust)" stroke-linecap="round" stroke-linejoin="round"/>
<rect x="899" y="264" width="160" height="30" rx="10" fill="#fffdf7" opacity="0.94"/>
<text x="979" y="284" text-anchor="middle" font-size="17" font-family="Comic Sans MS, Segoe Print, Arial"><tspan x="979" dy="0">Grant Access</tspan></text>
<path d="M775,495 L775,575 L775,575 L775,655" fill="none" stroke="#111111" stroke-width="4" marker-end="url(#arrow-normal)" stroke-linecap="round" stroke-linejoin="round"/>
<rect x="695" y="547" width="160" height="30" rx="10" fill="#fffdf7" opacity="0.94"/>
<text x="775" y="567" text-anchor="middle" font-size="17" font-family="Comic Sans MS, Segoe Print, Arial"><tspan x="775" dy="0">Log Access</tspan></text>
  <path d="M86,385 C71,382 66,390 68,403 L67,493 C68,508 74,514 86,512 L236,515 C249,514 257,505 254,493 L257,403 C256,390 248,383 236,384 Z" fill="#000000" opacity="0.08"/>
<path d="M80,377 C65,374 60,382 62,395 L61,485 C62,500 68,506 80,504 L230,507 C243,506 251,497 248,485 L251,395 C250,382 242,375 230,376 Z" fill="#eef6ff" stroke="#1e66b1" stroke-width="4" filter="url(#roughen)"/>
<circle cx="149" cy="411" r="10" fill="none" stroke="#111111" stroke-width="3"/><path d="M133,439 C139,421 159,421 165,439" fill="none" stroke="#111111" stroke-width="3"/>
<text x="155" y="471" text-anchor="middle" font-size="24" font-family="Comic Sans MS, Segoe Print, Arial"><tspan x="155" dy="0">User Identity</tspan></text>
<path d="M706,125 C691,122 686,130 688,143 L687,223 C688,238 694,244 706,242 L856,245 C869,244 877,235 874,223 L877,143 C876,130 868,123 856,124 Z" fill="#000000" opacity="0.08"/>
<path d="M700,117 C685,114 680,122 682,135 L681,215 C682,230 688,236 700,234 L850,237 C863,236 871,227 868,215 L871,135 C870,122 862,115 850,116 Z" fill="#fef8df" stroke="#d9a300" stroke-width="4" filter="url(#roughen)"/>
<rect x="756" y="157" width="34" height="28" rx="4" fill="none" stroke="#111111" stroke-width="3"/><path d="M763,157 v-8 C763,137 783,137 783,149 v8" fill="none" stroke="#111111" stroke-width="3"/>
<text x="775" y="201" text-anchor="middle" font-size="24" font-family="Comic Sans MS, Segoe Print, Arial"><tspan x="775" dy="0">Authentication</tspan></text>
<path d="M924,125 C909,122 904,130 906,143 L905,223 C906,238 912,244 924,242 L1074,245 C1087,244 1095,235 1092,223 L1095,143 C1094,130 1086,123 1074,124 Z" fill="#000000" opacity="0.08"/>
<path d="M918,117 C903,114 898,122 900,135 L899,215 C900,230 906,236 918,234 L1068,237 C1081,236 1089,227 1086,215 L1089,135 C1088,122 1080,115 1068,116 Z" fill="#fef8df" stroke="#d9a300" stroke-width="4" filter="url(#roughen)"/>
<path d="M991,139 L1011,147 C1008,171 1000,182 991,187 C982,182 974,171 971,147 Z" fill="none" stroke="#111111" stroke-width="3"/>
<text x="993" y="201" text-anchor="middle" font-size="24" font-family="Comic Sans MS, Segoe Print, Arial"><tspan x="993" dy="0">Auth Factors</tspan></text>
<path d="M1116,125 C1101,122 1096,130 1098,143 L1097,223 C1098,238 1104,244 1116,242 L1266,245 C1279,244 1287,235 1284,223 L1287,143 C1286,130 1278,123 1266,124 Z" fill="#000000" opacity="0.08"/>
<path d="M1110,117 C1095,114 1090,122 1092,135 L1091,215 C1092,230 1098,236 1110,234 L1260,237 C1273,236 1281,227 1278,215 L1281,135 C1280,122 1272,115 1260,116 Z" fill="#fef8df" stroke="#d9a300" stroke-width="4" filter="url(#roughen)"/>
<circle cx="1176" cy="159" r="10" fill="none" stroke="#111111" stroke-width="3"/><path d="M1186,159 H1209 M1199,159 v9 M1206,159 v7" stroke="#111111" stroke-width="3"/>
<text x="1185" y="201" text-anchor="middle" font-size="24" font-family="Comic Sans MS, Segoe Print, Arial"><tspan x="1185" dy="0">Authorization</tspan></text>
<path d="M1116,125 C1101,122 1096,130 1098,143 L1097,223 C1098,238 1104,244 1116,242 L1266,245 C1279,244 1287,235 1284,223 L1287,143 C1286,130 1278,123 1266,124 Z" fill="#000000" opacity="0.08"/>
<path d="M1110,117 C1095,114 1090,122 1092,135 L1091,215 C1092,230 1098,236 1110,234 L1260,237 C1273,236 1281,227 1278,215 L1281,135 C1280,122 1272,115 1260,116 Z" fill="#fef8df" stroke="#d9a300" stroke-width="4" filter="url(#roughen)"/>
<path d="M1183,139 L1203,147 C1200,171 1192,182 1183,187 C1174,182 1166,171 1163,147 Z" fill="none" stroke="#111111" stroke-width="3"/>
<text x="1185" y="201" text-anchor="middle" font-size="24" font-family="Comic Sans MS, Segoe Print, Arial"><tspan x="1185" dy="0">Access Policies</tspan></text>
<path d="M691,360 C676,357 671,365 673,378 L672,483 C673,498 679,504 691,502 L871,505 C884,504 892,495 889,483 L892,378 C891,365 883,358 871,359 Z" fill="#000000" opacity="0.08"/>
<path d="M685,352 C670,349 665,357 667,370 L666,475 C667,490 673,496 685,494 L865,497 C878,496 886,487 883,475 L886,370 C885,357 877,350 865,351 Z" fill="#fff4df" stroke="#df7c18" stroke-width="4" filter="url(#roughen)"/>
<rect x="758" y="380" width="34" height="34" rx="6" fill="none" stroke="#111111" stroke-width="3"/>
<text x="775" y="461" text-anchor="middle" font-size="24" font-family="Comic Sans MS, Segoe Print, Arial"><tspan x="775" dy="0">Protected</tspan><tspan x="775" dy="28">Resources</tspan></text>
<path d="M686,665 C671,662 666,670 668,683 L667,763 C668,778 674,784 686,782 L876,785 C889,784 897,775 894,763 L897,683 C896,670 888,663 876,664 Z" fill="#000000" opacity="0.08"/>
<path d="M680,657 C665,654 660,662 662,675 L661,755 C662,770 668,776 680,774 L870,777 C883,776 891,767 888,755 L891,675 C890,662 882,655 870,656 Z" fill="#eef9ea" stroke="#2e7d32" stroke-width="4" filter="url(#roughen)"/>
<ellipse cx="775" cy="687" rx="20" ry="8" fill="none" stroke="#111111" stroke-width="3"/><path d="M755,687 v30 C755,727 795,727 795,717 v-30" fill="none" stroke="#111111" stroke-width="3"/><path d="M755,702 C755,712 795,712 795,702" fill="none" stroke="#111111" stroke-width="3"/>
<text x="775" y="741" text-anchor="middle" font-size="24" font-family="Comic Sans MS, Segoe Print, Arial"><tspan x="775" dy="0">Audit Log</tspan></text>
<path d="M1116,125 C1101,122 1096,130 1098,143 L1097,223 C1098,238 1104,244 1116,242 L1266,245 C1279,244 1287,235 1284,223 L1287,143 C1286,130 1278,123 1266,124 Z" fill="#000000" opacity="0.08"/>
<path d="M1110,117 C1095,114 1090,122 1092,135 L1091,215 C1092,230 1098,236 1110,234 L1260,237 C1273,236 1281,227 1278,215 L1281,135 C1280,122 1272,115 1260,116 Z" fill="#fef8df" stroke="#d9a300" stroke-width="4" filter="url(#roughen)"/>
<path d="M1183,139 L1203,147 C1200,171 1192,182 1183,187 C1174,182 1166,171 1163,147 Z" fill="none" stroke="#111111" stroke-width="3"/>
<text x="1185" y="201" text-anchor="middle" font-size="24" font-family="Comic Sans MS, Segoe Print, Arial"><tspan x="1185" dy="0">Least Privilege</tspan></text>
  <path d="M1264,612 C1255,609 1250,617 1252,624 L1251,658 C1252,667 1258,673 1264,671 L1516,674 C1523,673 1531,664 1528,658 L1531,624 C1530,617 1522,610 1516,611 Z" fill="#fef8df" stroke="#d9a300" stroke-width="3" filter="url(#roughen)"/>
<text x="1390" y="649" text-anchor="middle" font-size="18" font-family="Comic Sans MS, Segoe Print, Arial"><tspan x="1390" dy="0">Authentication: who</tspan><tspan x="1390" dy="22">are you?</tspan></text>
<path d="M1264,694 C1255,691 1250,699 1252,706 L1251,740 C1252,749 1258,755 1264,753 L1516,756 C1523,755 1531,746 1528,740 L1531,706 C1530,699 1522,692 1516,693 Z" fill="#fef8df" stroke="#d9a300" stroke-width="3" filter="url(#roughen)"/>
<text x="1390" y="731" text-anchor="middle" font-size="18" font-family="Comic Sans MS, Segoe Print, Arial"><tspan x="1390" dy="0">Authorization: what</tspan><tspan x="1390" dy="22">can you do?</tspan></text>
  <path d="M61,792 C50,789 45,797 47,806 L46,879 C47,890 53,896 61,894 L409,897 C418,896 426,887 423,879 L426,806 C425,797 417,790 409,791 Z" fill="#ffffff" stroke="#777777" stroke-width="3"/>
<line x1="70" y1="816" x2="130" y2="816" stroke="#111111" stroke-width="4" marker-end="url(#arrow-normal)"/>
<text x="150" y="822" font-size="17" font-family="Comic Sans MS, Segoe Print, Arial">normal flow</text>
<line x1="70" y1="836" x2="130" y2="836" stroke="#1e66b1" stroke-width="4" marker-end="url(#arrow-trust)"/>
<text x="150" y="842" font-size="17" font-family="Comic Sans MS, Segoe Print, Arial">trust/config</text>
<line x1="70" y1="856" x2="130" y2="856" stroke="#2e7d32" stroke-width="4" marker-end="url(#arrow-control)"/>
<text x="150" y="862" font-size="17" font-family="Comic Sans MS, Segoe Print, Arial">control/success</text>
<line x1="70" y1="876" x2="130" y2="876" stroke="#d71920" stroke-width="4" stroke-dasharray="10 8" marker-end="url(#arrow-risk)"/>
<text x="150" y="882" font-size="17" font-family="Comic Sans MS, Segoe Print, Arial">attack/risk</text>
</svg>
