<svg xmlns="http://www.w3.org/2000/svg" width="1600" height="900" viewBox="0 0 1600 900">
  <defs>
    <pattern id="paper" width="18" height="18" patternUnits="userSpaceOnUse">
      <path d="M 18 0 L 0 0 0 18" fill="none" stroke="#f2ead8" stroke-width="0.8" opacity="0.25"/>
    </pattern>
    <filter id="roughen">
      <feTurbulence type="fractalNoise" baseFrequency="0.018" numOctaves="1" result="noise"/>
      <feDisplacementMap in="SourceGraphic" in2="noise" scale="0.85"/>
    </filter>
    <marker id="arrow-normal" markerWidth="12" markerHeight="12" refX="10" refY="6" orient="auto" markerUnits="strokeWidth"><path d="M2,2 L10,6 L2,10 z" fill="#111111"/></marker>
    <marker id="arrow-trust" markerWidth="12" markerHeight="12" refX="10" refY="6" orient="auto" markerUnits="strokeWidth"><path d="M2,2 L10,6 L2,10 z" fill="#1e66b1"/></marker>
    <marker id="arrow-control" markerWidth="12" markerHeight="12" refX="10" refY="6" orient="auto" markerUnits="strokeWidth"><path d="M2,2 L10,6 L2,10 z" fill="#2e7d32"/></marker>
    <marker id="arrow-risk" markerWidth="12" markerHeight="12" refX="10" refY="6" orient="auto" markerUnits="strokeWidth"><path d="M2,2 L10,6 L2,10 z" fill="#d71920"/></marker>
  </defs>
  <rect width="1600" height="900" fill="#fffdf7"/>
  <rect width="1600" height="900" fill="url(#paper)"/>
  <text x="800" y="58" text-anchor="middle" font-size="40" font-family="Comic Sans MS, Segoe Print, Arial" font-weight="700">Fundamentals of Authentication and</text>
  <path d="M540 78 C650 92, 940 90, 1060 78" fill="none" stroke="#d9a300" stroke-width="5" stroke-linecap="round"/>
  
  <path d="M326,262 C305,259 300,267 302,286 L301,594 C302,615 308,621 326,619 L1234,622 C1253,621 1261,612 1258,594 L1261,286 C1260,267 1252,260 1234,261 Z" fill="none" stroke="#777777" stroke-width="4" stroke-dasharray="14 12"/>
<text x="780" y="302" text-anchor="middle" font-size="24" fill="#555555" font-family="Comic Sans MS, Segoe Print, Arial">Client / Untrusted Input</text>
  <path d="M155,375 L155,305 L795,305 L795,235" fill="none" stroke="#1e66b1" stroke-width="4" marker-end="url(#arrow-trust)" stroke-linecap="round" stroke-linejoin="round"/>
<rect x="395" y="277" width="160" height="30" rx="10" fill="#fffdf7" opacity="0.94"/>
<text x="475" y="297" text-anchor="middle" font-size="17" font-family="Comic Sans MS, Segoe Print, Arial"><tspan x="475" dy="0">Verify Identity</tspan></text>
<path d="M700,175 L686,175 L686,175 L672,175" fill="none" stroke="#2e7d32" stroke-width="4" marker-end="url(#arrow-control)" stroke-linecap="round" stroke-linejoin="round"/>
<rect x="606" y="147" width="160" height="30" rx="10" fill="#fffdf7" opacity="0.94"/>
<text x="686" y="167" text-anchor="middle" font-size="17" font-family="Comic Sans MS, Segoe Print, Arial"><tspan x="686" dy="0">Create Session</tspan></text>
<path d="M672,175 L795,175 L795,175 L918,175" fill="none" stroke="#1e66b1" stroke-width="4" marker-end="url(#arrow-trust)" stroke-linecap="round" stroke-linejoin="round"/>
<rect x="715" y="147" width="160" height="30" rx="10" fill="#fffdf7" opacity="0.94"/>
<text x="795" y="167" text-anchor="middle" font-size="17" font-family="Comic Sans MS, Segoe Print, Arial"><tspan x="795" dy="0">Validate Token</tspan></text>
<path d="M1108,175 L1099,175 L1099,175 L1090,175" fill="none" stroke="#2e7d32" stroke-width="4" marker-end="url(#arrow-control)" stroke-linecap="round" stroke-linejoin="round"/>
<rect x="1019" y="147" width="160" height="30" rx="10" fill="#fffdf7" opacity="0.94"/>
<text x="1099" y="167" text-anchor="middle" font-size="17" font-family="Comic Sans MS, Segoe Print, Arial"><tspan x="1099" dy="0">Check</tspan><tspan x="1099" dy="21">Permissions</tspan></text>
<path d="M1185,235 L1185,292 L775,292 L775,350" fill="none" stroke="#111111" stroke-width="4" marker-end="url(#arrow-normal)" stroke-linecap="round" stroke-linejoin="round"/>
<rect x="899" y="264" width="160" height="30" rx="10" fill="#fffdf7" opacity="0.94"/>
<text x="979" y="284" text-anchor="middle" font-size="17" font-family="Comic Sans MS, Segoe Print, Arial"><tspan x="979" dy="0">Grant Access</tspan></text>
<path d="M795,235 L795,445 L795,445 L795,655" fill="none" stroke="#1e66b1" stroke-width="4" marker-end="url(#arrow-trust)" stroke-linecap="round" stroke-linejoin="round"/>
<rect x="715" y="417" width="160" height="30" rx="10" fill="#fffdf7" opacity="0.94"/>
<text x="795" y="437" text-anchor="middle" font-size="17" font-family="Comic Sans MS, Segoe Print, Arial"><tspan x="795" dy="0">Verify Hash</tspan></text>
<path d="M1013,235 L1013,445 L1053,445 L1053,655" fill="none" stroke="#111111" stroke-width="4" marker-end="url(#arrow-normal)" stroke-linecap="round" stroke-linejoin="round"/>
<rect x="953" y="417" width="160" height="30" rx="10" fill="#fffdf7" opacity="0.94"/>
<text x="1033" y="437" text-anchor="middle" font-size="17" font-family="Comic Sans MS, Segoe Print, Arial"><tspan x="1033" dy="0">Log Decision</tspan></text>
<path d="M1090,175 L881,175 L881,175 L672,175" fill="none" stroke="#2e7d32" stroke-width="4" marker-end="url(#arrow-control)" stroke-linecap="round" stroke-linejoin="round"/>
<rect x="801" y="147" width="160" height="30" rx="10" fill="#fffdf7" opacity="0.94"/>
<text x="881" y="167" text-anchor="middle" font-size="17" font-family="Comic Sans MS, Segoe Print, Arial"><tspan x="881" dy="0">Refresh / Revoke</tspan></text>
  <path d="M86,385 C71,382 66,390 68,403 L67,493 C68,508 74,514 86,512 L236,515 C249,514 257,505 254,493 L257,403 C256,390 248,383 236,384 Z" fill="#000000" opacity="0.08"/>
<path d="M80,377 C65,374 60,382 62,395 L61,485 C62,500 68,506 80,504 L230,507 C243,506 251,497 248,485 L251,395 C250,382 242,375 230,376 Z" fill="#eef6ff" stroke="#1e66b1" stroke-width="4" filter="url(#roughen)"/>
<circle cx="149" cy="411" r="10" fill="none" stroke="#111111" stroke-width="3"/><path d="M133,439 C139,421 159,421 165,439" fill="none" stroke="#111111" stroke-width="3"/>
<text x="155" y="471" text-anchor="middle" font-size="24" font-family="Comic Sans MS, Segoe Print, Arial"><tspan x="155" dy="0">User Identity</tspan></text>
<path d="M726,125 C711,122 706,130 708,143 L707,223 C708,238 714,244 726,242 L876,245 C889,244 897,235 894,223 L897,143 C896,130 888,123 876,124 Z" fill="#000000" opacity="0.08"/>
<path d="M720,117 C705,114 700,122 702,135 L701,215 C702,230 708,236 720,234 L870,237 C883,236 891,227 888,215 L891,135 C890,122 882,115 870,116 Z" fill="#fef8df" stroke="#d9a300" stroke-width="4" filter="url(#roughen)"/>
<rect x="776" y="157" width="34" height="28" rx="4" fill="none" stroke="#111111" stroke-width="3"/><path d="M783,157 v-8 C783,137 803,137 803,149 v8" fill="none" stroke="#111111" stroke-width="3"/>
<text x="795" y="201" text-anchor="middle" font-size="24" font-family="Comic Sans MS, Segoe Print, Arial"><tspan x="795" dy="0">Authentication</tspan><tspan x="795" dy="28">MFA</tspan></text>
<path d="M944,125 C929,122 924,130 926,143 L925,223 C926,238 932,244 944,242 L1094,245 C1107,244 1115,235 1112,223 L1115,143 C1114,130 1106,123 1094,124 Z" fill="#000000" opacity="0.08"/>
<path d="M938,117 C923,114 918,122 920,135 L919,215 C920,230 926,236 938,234 L1088,237 C1101,236 1109,227 1106,215 L1109,135 C1108,122 1100,115 1088,116 Z" fill="#fef8df" stroke="#d9a300" stroke-width="4" filter="url(#roughen)"/>
<path d="M1011,139 L1031,147 C1028,171 1020,182 1011,187 C1002,182 994,171 991,147 Z" fill="none" stroke="#111111" stroke-width="3"/>
<text x="1013" y="201" text-anchor="middle" font-size="24" font-family="Comic Sans MS, Segoe Print, Arial"><tspan x="1013" dy="0">Authorization</tspan><tspan x="1013" dy="28">Check</tspan></text>
<path d="M508,125 C493,122 488,130 490,143 L489,223 C490,238 496,244 508,242 L658,245 C671,244 679,235 676,223 L679,143 C678,130 670,123 658,124 Z" fill="#000000" opacity="0.08"/>
<path d="M502,117 C487,114 482,122 484,135 L483,215 C484,230 490,236 502,234 L652,237 C665,236 673,227 670,215 L673,135 C672,122 664,115 652,116 Z" fill="#fef8df" stroke="#d9a300" stroke-width="4" filter="url(#roughen)"/>
<circle cx="568" cy="159" r="10" fill="none" stroke="#111111" stroke-width="3"/><path d="M578,159 H601 M591,159 v9 M598,159 v7" stroke="#111111" stroke-width="3"/>
<text x="577" y="201" text-anchor="middle" font-size="24" font-family="Comic Sans MS, Segoe Print, Arial"><tspan x="577" dy="0">Session</tspan><tspan x="577" dy="28">Management</tspan></text>
<path d="M691,360 C676,357 671,365 673,378 L672,483 C673,498 679,504 691,502 L871,505 C884,504 892,495 889,483 L892,378 C891,365 883,358 871,359 Z" fill="#000000" opacity="0.08"/>
<path d="M685,352 C670,349 665,357 667,370 L666,475 C667,490 673,496 685,494 L865,497 C878,496 886,487 883,475 L886,370 C885,357 877,350 865,351 Z" fill="#fff4df" stroke="#df7c18" stroke-width="4" filter="url(#roughen)"/>
<rect x="758" y="380" width="34" height="34" rx="6" fill="none" stroke="#111111" stroke-width="3"/>
<text x="775" y="461" text-anchor="middle" font-size="24" font-family="Comic Sans MS, Segoe Print, Arial"><tspan x="775" dy="0">Resource Access</tspan></text>
<path d="M706,665 C691,662 686,670 688,683 L687,763 C688,778 694,784 706,782 L896,785 C909,784 917,775 914,763 L917,683 C916,670 908,663 896,664 Z" fill="#000000" opacity="0.08"/>
<path d="M700,657 C685,654 680,662 682,675 L681,755 C682,770 688,776 700,774 L890,777 C903,776 911,767 908,755 L911,675 C910,662 902,655 890,656 Z" fill="#eef9ea" stroke="#2e7d32" stroke-width="4" filter="url(#roughen)"/>
<ellipse cx="795" cy="687" rx="20" ry="8" fill="none" stroke="#111111" stroke-width="3"/><path d="M775,687 v30 C775,727 815,727 815,717 v-30" fill="none" stroke="#111111" stroke-width="3"/><path d="M775,702 C775,712 815,712 815,702" fill="none" stroke="#111111" stroke-width="3"/>
<text x="795" y="741" text-anchor="middle" font-size="24" font-family="Comic Sans MS, Segoe Print, Arial"><tspan x="795" dy="0">Password Hash Store</tspan></text>
<path d="M964,665 C949,662 944,670 946,683 L945,763 C946,778 952,784 964,782 L1154,785 C1167,784 1175,775 1172,763 L1175,683 C1174,670 1166,663 1154,664 Z" fill="#000000" opacity="0.08"/>
<path d="M958,657 C943,654 938,662 940,675 L939,755 C940,770 946,776 958,774 L1148,777 C1161,776 1169,767 1166,755 L1169,675 C1168,662 1160,655 1148,656 Z" fill="#eef9ea" stroke="#2e7d32" stroke-width="4" filter="url(#roughen)"/>
<path d="M1053,681 L1075,721 H1031 Z" fill="none" stroke="#111111" stroke-width="3"/><path d="M1053,694 v13 M1053,713 v3" stroke="#111111" stroke-width="4"/>
<text x="1053" y="741" text-anchor="middle" font-size="24" font-family="Comic Sans MS, Segoe Print, Arial"><tspan x="1053" dy="0">Audit Log</tspan></text>
<path d="M1116,125 C1101,122 1096,130 1098,143 L1097,223 C1098,238 1104,244 1116,242 L1266,245 C1279,244 1287,235 1284,223 L1287,143 C1286,130 1278,123 1266,124 Z" fill="#000000" opacity="0.08"/>
<path d="M1110,117 C1095,114 1090,122 1092,135 L1091,215 C1092,230 1098,236 1110,234 L1260,237 C1273,236 1281,227 1278,215 L1281,135 C1280,122 1272,115 1260,116 Z" fill="#fef8df" stroke="#d9a300" stroke-width="4" filter="url(#roughen)"/>
<circle cx="1176" cy="159" r="10" fill="none" stroke="#111111" stroke-width="3"/><path d="M1186,159 H1209 M1199,159 v9 M1206,159 v7" stroke="#111111" stroke-width="3"/>
<text x="1185" y="201" text-anchor="middle" font-size="24" font-family="Comic Sans MS, Segoe Print, Arial"><tspan x="1185" dy="0">Token Lifecycle</tspan></text>
<path d="M1116,125 C1101,122 1096,130 1098,143 L1097,223 C1098,238 1104,244 1116,242 L1266,245 C1279,244 1287,235 1284,223 L1287,143 C1286,130 1278,123 1266,124 Z" fill="#000000" opacity="0.08"/>
<path d="M1110,117 C1095,114 1090,122 1092,135 L1091,215 C1092,230 1098,236 1110,234 L1260,237 C1273,236 1281,227 1278,215 L1281,135 C1280,122 1272,115 1260,116 Z" fill="#fef8df" stroke="#d9a300" stroke-width="4" filter="url(#roughen)"/>
<path d="M1183,139 L1203,147 C1200,171 1192,182 1183,187 C1174,182 1166,171 1163,147 Z" fill="none" stroke="#111111" stroke-width="3"/>
<text x="1185" y="201" text-anchor="middle" font-size="24" font-family="Comic Sans MS, Segoe Print, Arial"><tspan x="1185" dy="0">Least Privilege</tspan></text>
  <path d="M1264,612 C1255,609 1250,617 1252,624 L1251,658 C1252,667 1258,673 1264,671 L1516,674 C1523,673 1531,664 1528,658 L1531,624 C1530,617 1522,610 1516,611 Z" fill="#fef8df" stroke="#d9a300" stroke-width="3" filter="url(#roughen)"/>
<text x="1390" y="649" text-anchor="middle" font-size="18" font-family="Comic Sans MS, Segoe Print, Arial"><tspan x="1390" dy="0">Authentication: who</tspan><tspan x="1390" dy="22">are you?</tspan></text>
<path d="M1264,694 C1255,691 1250,699 1252,706 L1251,740 C1252,749 1258,755 1264,753 L1516,756 C1523,755 1531,746 1528,740 L1531,706 C1530,699 1522,692 1516,693 Z" fill="#fef8df" stroke="#d9a300" stroke-width="3" filter="url(#roughen)"/>
<text x="1390" y="731" text-anchor="middle" font-size="18" font-family="Comic Sans MS, Segoe Print, Arial"><tspan x="1390" dy="0">MFA significantly</tspan><tspan x="1390" dy="22">raises the</tspan></text>
  <path d="M61,792 C50,789 45,797 47,806 L46,879 C47,890 53,896 61,894 L409,897 C418,896 426,887 423,879 L426,806 C425,797 417,790 409,791 Z" fill="#ffffff" stroke="#777777" stroke-width="3"/>
<line x1="70" y1="816" x2="130" y2="816" stroke="#111111" stroke-width="4" marker-end="url(#arrow-normal)"/>
<text x="150" y="822" font-size="17" font-family="Comic Sans MS, Segoe Print, Arial">normal flow</text>
<line x1="70" y1="836" x2="130" y2="836" stroke="#1e66b1" stroke-width="4" marker-end="url(#arrow-trust)"/>
<text x="150" y="842" font-size="17" font-family="Comic Sans MS, Segoe Print, Arial">trust/config</text>
<line x1="70" y1="856" x2="130" y2="856" stroke="#2e7d32" stroke-width="4" marker-end="url(#arrow-control)"/>
<text x="150" y="862" font-size="17" font-family="Comic Sans MS, Segoe Print, Arial">control/success</text>
<line x1="70" y1="876" x2="130" y2="876" stroke="#d71920" stroke-width="4" stroke-dasharray="10 8" marker-end="url(#arrow-risk)"/>
<text x="150" y="882" font-size="17" font-family="Comic Sans MS, Segoe Print, Arial">attack/risk</text>
</svg>
