<svg xmlns="http://www.w3.org/2000/svg" width="1600" height="900" viewBox="0 0 1600 900">
  <defs>
    <pattern id="paper" width="18" height="18" patternUnits="userSpaceOnUse">
      <path d="M 18 0 L 0 0 0 18" fill="none" stroke="#f2ead8" stroke-width="0.8" opacity="0.25"/>
    </pattern>
    <filter id="roughen">
      <feTurbulence type="fractalNoise" baseFrequency="0.018" numOctaves="1" result="noise"/>
      <feDisplacementMap in="SourceGraphic" in2="noise" scale="0.85"/>
    </filter>
    <marker id="arrow-normal" markerWidth="12" markerHeight="12" refX="10" refY="6" orient="auto" markerUnits="strokeWidth"><path d="M2,2 L10,6 L2,10 z" fill="#111111"/></marker>
    <marker id="arrow-trust" markerWidth="12" markerHeight="12" refX="10" refY="6" orient="auto" markerUnits="strokeWidth"><path d="M2,2 L10,6 L2,10 z" fill="#1e66b1"/></marker>
    <marker id="arrow-control" markerWidth="12" markerHeight="12" refX="10" refY="6" orient="auto" markerUnits="strokeWidth"><path d="M2,2 L10,6 L2,10 z" fill="#2e7d32"/></marker>
    <marker id="arrow-risk" markerWidth="12" markerHeight="12" refX="10" refY="6" orient="auto" markerUnits="strokeWidth"><path d="M2,2 L10,6 L2,10 z" fill="#d71920"/></marker>
  </defs>
  <rect width="1600" height="900" fill="#fffdf7"/>
  <rect width="1600" height="900" fill="url(#paper)"/>
  <text x="800" y="58" text-anchor="middle" font-size="40" font-family="Comic Sans MS, Segoe Print, Arial" font-weight="700">Fundamentals of Authentication and</text>
  <path d="M540 78 C650 92, 940 90, 1060 78" fill="none" stroke="#d9a300" stroke-width="5" stroke-linecap="round"/>
  
  <path d="M326,262 C305,259 300,267 302,286 L301,594 C302,615 308,621 326,619 L1234,622 C1253,621 1261,612 1258,594 L1261,286 C1260,267 1252,260 1234,261 Z" fill="none" stroke="#777777" stroke-width="4" stroke-dasharray="14 12"/>
<text x="780" y="302" text-anchor="middle" font-size="24" fill="#555555" font-family="Comic Sans MS, Segoe Print, Arial">User / External</text>
  <path d="M155,375 L155,305 L440,305 L440,235" fill="none" stroke="#111111" stroke-width="4" marker-end="url(#arrow-normal)" stroke-linecap="round" stroke-linejoin="round"/>
<rect x="217" y="277" width="160" height="30" rx="10" fill="#fffdf7" opacity="0.94"/>
<text x="297" y="297" text-anchor="middle" font-size="17" font-family="Comic Sans MS, Segoe Print, Arial"><tspan x="297" dy="0">Credentials</tspan></text>
<path d="M535,175 L549,175 L549,175 L563,175" fill="none" stroke="#2e7d32" stroke-width="4" marker-end="url(#arrow-control)" stroke-linecap="round" stroke-linejoin="round"/>
<rect x="469" y="147" width="160" height="30" rx="10" fill="#fffdf7" opacity="0.94"/>
<text x="549" y="167" text-anchor="middle" font-size="17" font-family="Comic Sans MS, Segoe Print, Arial"><tspan x="549" dy="0">Issue Token</tspan></text>
<path d="M658,235 L658,292 L440,292 L440,350" fill="none" stroke="#1e66b1" stroke-width="4" marker-end="url(#arrow-trust)" stroke-linecap="round" stroke-linejoin="round"/>
<rect x="468" y="264" width="160" height="30" rx="10" fill="#fffdf7" opacity="0.94"/>
<text x="548" y="284" text-anchor="middle" font-size="17" font-family="Comic Sans MS, Segoe Print, Arial"><tspan x="548" dy="0">Validate Token</tspan></text>
<path d="M440,495 L440,575 L1105,575 L1105,655" fill="none" stroke="#111111" stroke-width="4" marker-end="url(#arrow-normal)" stroke-linecap="round" stroke-linejoin="round"/>
<rect x="692" y="547" width="160" height="30" rx="10" fill="#fffdf7" opacity="0.94"/>
<text x="772" y="567" text-anchor="middle" font-size="17" font-family="Comic Sans MS, Segoe Print, Arial"><tspan x="772" dy="0">Check Policy</tspan></text>
<path d="M550,422 L775,422 L775,422 L1000,422" fill="none" stroke="#2e7d32" stroke-width="4" marker-end="url(#arrow-control)" stroke-linecap="round" stroke-linejoin="round"/>
<rect x="695" y="394" width="160" height="30" rx="10" fill="#fffdf7" opacity="0.94"/>
<text x="775" y="414" text-anchor="middle" font-size="17" font-family="Comic Sans MS, Segoe Print, Arial"><tspan x="775" dy="0">Scope to Tenant</tspan></text>
<path d="M1220,422 L1280,422 L1280,440 L1340,440" fill="none" stroke="#111111" stroke-width="4" marker-end="url(#arrow-normal)" stroke-linecap="round" stroke-linejoin="round"/>
<rect x="1200" y="403" width="160" height="30" rx="10" fill="#fffdf7" opacity="0.94"/>
<text x="1280" y="423" text-anchor="middle" font-size="17" font-family="Comic Sans MS, Segoe Print, Arial"><tspan x="1280" dy="0">Permit Access</tspan></text>
<path d="M440,235 L440,445 L440,445 L440,655" fill="none" stroke="#111111" stroke-width="4" marker-end="url(#arrow-normal)" stroke-linecap="round" stroke-linejoin="round"/>
<rect x="360" y="417" width="160" height="30" rx="10" fill="#fffdf7" opacity="0.94"/>
<text x="440" y="437" text-anchor="middle" font-size="17" font-family="Comic Sans MS, Segoe Print, Arial"><tspan x="440" dy="0">Log Decision</tspan></text>
<path d="M440,495 L440,575 L440,575 L440,655" fill="none" stroke="#111111" stroke-width="4" marker-end="url(#arrow-normal)" stroke-linecap="round" stroke-linejoin="round"/>
<rect x="360" y="547" width="160" height="30" rx="10" fill="#fffdf7" opacity="0.94"/>
<text x="440" y="567" text-anchor="middle" font-size="17" font-family="Comic Sans MS, Segoe Print, Arial"><tspan x="440" dy="0">Log Decision</tspan></text>
<path d="M1030,175 L891,175 L891,175 L753,175" fill="none" stroke="#2e7d32" stroke-width="4" marker-end="url(#arrow-control)" stroke-linecap="round" stroke-linejoin="round"/>
<rect x="811" y="147" width="160" height="30" rx="10" fill="#fffdf7" opacity="0.94"/>
<text x="891" y="167" text-anchor="middle" font-size="17" font-family="Comic Sans MS, Segoe Print, Arial"><tspan x="891" dy="0">Revoke Token</tspan></text>
  <path d="M86,385 C71,382 66,390 68,403 L67,493 C68,508 74,514 86,512 L236,515 C249,514 257,505 254,493 L257,403 C256,390 248,383 236,384 Z" fill="#000000" opacity="0.08"/>
<path d="M80,377 C65,374 60,382 62,395 L61,485 C62,500 68,506 80,504 L230,507 C243,506 251,497 248,485 L251,395 C250,382 242,375 230,376 Z" fill="#eef6ff" stroke="#1e66b1" stroke-width="4" filter="url(#roughen)"/>
<circle cx="149" cy="411" r="10" fill="none" stroke="#111111" stroke-width="3"/><path d="M133,439 C139,421 159,421 165,439" fill="none" stroke="#111111" stroke-width="3"/>
<text x="155" y="471" text-anchor="middle" font-size="24" font-family="Comic Sans MS, Segoe Print, Arial"><tspan x="155" dy="0">User Request</tspan></text>
<path d="M371,125 C356,122 351,130 353,143 L352,223 C353,238 359,244 371,242 L521,245 C534,244 542,235 539,223 L542,143 C541,130 533,123 521,124 Z" fill="#000000" opacity="0.08"/>
<path d="M365,117 C350,114 345,122 347,135 L346,215 C347,230 353,236 365,234 L515,237 C528,236 536,227 533,215 L536,135 C535,122 527,115 515,116 Z" fill="#fef8df" stroke="#d9a300" stroke-width="4" filter="url(#roughen)"/>
<rect x="421" y="157" width="34" height="28" rx="4" fill="none" stroke="#111111" stroke-width="3"/><path d="M428,157 v-8 C428,137 448,137 448,149 v8" fill="none" stroke="#111111" stroke-width="3"/>
<text x="440" y="201" text-anchor="middle" font-size="24" font-family="Comic Sans MS, Segoe Print, Arial"><tspan x="440" dy="0">Authentication</tspan><tspan x="440" dy="28">Gateway</tspan></text>
<path d="M589,125 C574,122 569,130 571,143 L570,223 C571,238 577,244 589,242 L739,245 C752,244 760,235 757,223 L760,143 C759,130 751,123 739,124 Z" fill="#000000" opacity="0.08"/>
<path d="M583,117 C568,114 563,122 565,135 L564,215 C565,230 571,236 583,234 L733,237 C746,236 754,227 751,215 L754,135 C753,122 745,115 733,116 Z" fill="#fef8df" stroke="#d9a300" stroke-width="4" filter="url(#roughen)"/>
<circle cx="649" cy="159" r="10" fill="none" stroke="#111111" stroke-width="3"/><path d="M659,159 H682 M672,159 v9 M679,159 v7" stroke="#111111" stroke-width="3"/>
<text x="658" y="201" text-anchor="middle" font-size="24" font-family="Comic Sans MS, Segoe Print, Arial"><tspan x="658" dy="0">Token Lifecycle</tspan><tspan x="658" dy="28">Mgmt</tspan></text>
<path d="M356,360 C341,357 336,365 338,378 L337,483 C338,498 344,504 356,502 L536,505 C549,504 557,495 554,483 L557,378 C556,365 548,358 536,359 Z" fill="#000000" opacity="0.08"/>
<path d="M350,352 C335,349 330,357 332,370 L331,475 C332,490 338,496 350,494 L530,497 C543,496 551,487 548,475 L551,370 C550,357 542,350 530,351 Z" fill="#fff4df" stroke="#df7c18" stroke-width="4" filter="url(#roughen)"/>
<path d="M438,374 L458,382 C455,406 447,417 438,422 C429,417 421,406 418,382 Z" fill="none" stroke="#111111" stroke-width="3"/>
<text x="440" y="461" text-anchor="middle" font-size="24" font-family="Comic Sans MS, Segoe Print, Arial"><tspan x="440" dy="0">Authorization</tspan><tspan x="440" dy="28">Engine</tspan></text>
<path d="M1016,665 C1001,662 996,670 998,683 L997,763 C998,778 1004,784 1016,782 L1206,785 C1219,784 1227,775 1224,763 L1227,683 C1226,670 1218,663 1206,664 Z" fill="#000000" opacity="0.08"/>
<path d="M1010,657 C995,654 990,662 992,675 L991,755 C992,770 998,776 1010,774 L1200,777 C1213,776 1221,767 1218,755 L1221,675 C1220,662 1212,655 1200,656 Z" fill="#eef9ea" stroke="#2e7d32" stroke-width="4" filter="url(#roughen)"/>
<ellipse cx="1105" cy="687" rx="20" ry="8" fill="none" stroke="#111111" stroke-width="3"/><path d="M1085,687 v30 C1085,727 1125,727 1125,717 v-30" fill="none" stroke="#111111" stroke-width="3"/><path d="M1085,702 C1085,712 1125,712 1125,702" fill="none" stroke="#111111" stroke-width="3"/>
<text x="1105" y="741" text-anchor="middle" font-size="24" font-family="Comic Sans MS, Segoe Print, Arial"><tspan x="1105" dy="0">Policy Store</tspan></text>
<path d="M1026,360 C1011,357 1006,365 1008,378 L1007,483 C1008,498 1014,504 1026,502 L1206,505 C1219,504 1227,495 1224,483 L1227,378 C1226,365 1218,358 1206,359 Z" fill="#000000" opacity="0.08"/>
<path d="M1020,352 C1005,349 1000,357 1002,370 L1001,475 C1002,490 1008,496 1020,494 L1200,497 C1213,496 1221,487 1218,475 L1221,370 C1220,357 1212,350 1200,351 Z" fill="#fff4df" stroke="#df7c18" stroke-width="4" filter="url(#roughen)"/>
<path d="M1108,374 L1128,382 C1125,406 1117,417 1108,422 C1099,417 1091,406 1088,382 Z" fill="none" stroke="#111111" stroke-width="3"/>
<text x="1110" y="461" text-anchor="middle" font-size="24" font-family="Comic Sans MS, Segoe Print, Arial"><tspan x="1110" dy="0">Tenant Isolation</tspan></text>
<path d="M351,665 C336,662 331,670 333,683 L332,763 C333,778 339,784 351,782 L541,785 C554,784 562,775 559,763 L562,683 C561,670 553,663 541,664 Z" fill="#000000" opacity="0.08"/>
<path d="M345,657 C330,654 325,662 327,675 L326,755 C327,770 333,776 345,774 L535,777 C548,776 556,767 553,755 L556,675 C555,662 547,655 535,656 Z" fill="#eef9ea" stroke="#2e7d32" stroke-width="4" filter="url(#roughen)"/>
<ellipse cx="440" cy="687" rx="20" ry="8" fill="none" stroke="#111111" stroke-width="3"/><path d="M420,687 v30 C420,727 460,727 460,717 v-30" fill="none" stroke="#111111" stroke-width="3"/><path d="M420,702 C420,712 460,712 460,702" fill="none" stroke="#111111" stroke-width="3"/>
<text x="440" y="741" text-anchor="middle" font-size="24" font-family="Comic Sans MS, Segoe Print, Arial"><tspan x="440" dy="0">Immutable Audit Log</tspan></text>
<path d="M1366,385 C1351,382 1346,390 1348,403 L1347,493 C1348,508 1354,514 1366,512 L1516,515 C1529,514 1537,505 1534,493 L1537,403 C1536,390 1528,383 1516,384 Z" fill="#000000" opacity="0.08"/>
<path d="M1360,377 C1345,374 1340,382 1342,395 L1341,485 C1342,500 1348,506 1360,504 L1510,507 C1523,506 1531,497 1528,485 L1531,395 C1530,382 1522,375 1510,376 Z" fill="#eef6ff" stroke="#1e66b1" stroke-width="4" filter="url(#roughen)"/>
<rect x="1418" y="405" width="34" height="34" rx="6" fill="none" stroke="#111111" stroke-width="3"/>
<text x="1435" y="471" text-anchor="middle" font-size="24" font-family="Comic Sans MS, Segoe Print, Arial"><tspan x="1435" dy="0">Resource Access</tspan></text>
<path d="M1056,125 C1041,122 1036,130 1038,143 L1037,223 C1038,238 1044,244 1056,242 L1206,245 C1219,244 1227,235 1224,223 L1227,143 C1226,130 1218,123 1206,124 Z" fill="#000000" opacity="0.08"/>
<path d="M1050,117 C1035,114 1030,122 1032,135 L1031,215 C1032,230 1038,236 1050,234 L1200,237 C1213,236 1221,227 1218,215 L1221,135 C1220,122 1212,115 1200,116 Z" fill="#fef8df" stroke="#d9a300" stroke-width="4" filter="url(#roughen)"/>
<path d="M1125,141 L1147,181 H1103 Z" fill="none" stroke="#111111" stroke-width="3"/><path d="M1125,154 v13 M1125,173 v3" stroke="#111111" stroke-width="4"/>
<text x="1125" y="201" text-anchor="middle" font-size="24" font-family="Comic Sans MS, Segoe Print, Arial"><tspan x="1125" dy="0">Revocation</tspan><tspan x="1125" dy="28">Service</tspan></text>
  <path d="M1264,612 C1255,609 1250,617 1252,624 L1251,658 C1252,667 1258,673 1264,671 L1516,674 C1523,673 1531,664 1528,658 L1531,624 C1530,617 1522,610 1516,611 Z" fill="#fef8df" stroke="#d9a300" stroke-width="3" filter="url(#roughen)"/>
<text x="1390" y="649" text-anchor="middle" font-size="18" font-family="Comic Sans MS, Segoe Print, Arial"><tspan x="1390" dy="0">Defense in depth:</tspan><tspan x="1390" dy="22">multiple</tspan></text>
<path d="M1264,694 C1255,691 1250,699 1252,706 L1251,740 C1252,749 1258,755 1264,753 L1516,756 C1523,755 1531,746 1528,740 L1531,706 C1530,699 1522,692 1516,693 Z" fill="#fef8df" stroke="#d9a300" stroke-width="3" filter="url(#roughen)"/>
<text x="1390" y="731" text-anchor="middle" font-size="18" font-family="Comic Sans MS, Segoe Print, Arial"><tspan x="1390" dy="0">Authentication: who</tspan><tspan x="1390" dy="22">are you?</tspan></text>
  <path d="M61,792 C50,789 45,797 47,806 L46,879 C47,890 53,896 61,894 L409,897 C418,896 426,887 423,879 L426,806 C425,797 417,790 409,791 Z" fill="#ffffff" stroke="#777777" stroke-width="3"/>
<line x1="70" y1="816" x2="130" y2="816" stroke="#111111" stroke-width="4" marker-end="url(#arrow-normal)"/>
<text x="150" y="822" font-size="17" font-family="Comic Sans MS, Segoe Print, Arial">normal flow</text>
<line x1="70" y1="836" x2="130" y2="836" stroke="#1e66b1" stroke-width="4" marker-end="url(#arrow-trust)"/>
<text x="150" y="842" font-size="17" font-family="Comic Sans MS, Segoe Print, Arial">trust/config</text>
<line x1="70" y1="856" x2="130" y2="856" stroke="#2e7d32" stroke-width="4" marker-end="url(#arrow-control)"/>
<text x="150" y="862" font-size="17" font-family="Comic Sans MS, Segoe Print, Arial">control/success</text>
<line x1="70" y1="876" x2="130" y2="876" stroke="#d71920" stroke-width="4" stroke-dasharray="10 8" marker-end="url(#arrow-risk)"/>
<text x="150" y="882" font-size="17" font-family="Comic Sans MS, Segoe Print, Arial">attack/risk</text>
</svg>
