<svg xmlns="http://www.w3.org/2000/svg" width="1600" height="950" viewBox="0 0 1600 950">
  <defs>
    <marker id="arrow" markerWidth="12" markerHeight="12" refX="10" refY="6" orient="auto" markerUnits="strokeWidth">
      <path d="M2,2 L10,6 L2,10 z" fill="#111111"/>
    </marker>
    <filter id="paper">
      <feTurbulence type="fractalNoise" baseFrequency="0.025" numOctaves="2" result="noise"/>
      <feColorMatrix type="saturate" values="0"/>
      <feBlend in="SourceGraphic" in2="noise" mode="multiply"/>
    </filter>
  </defs>
  <rect width="1600" height="950" fill="#fffdf7"/>
  <text x="800" y="70" text-anchor="middle" font-size="38" font-family="Comic Sans MS, Segoe Print, Arial" font-weight="700">Web Application Authentication Implementation</text>
  <rect x="315" y="155" width="945" height="430" rx="24" fill="none" stroke="#777777" stroke-width="4" stroke-dasharray="14 12"/>
  <text x="787" y="205" text-anchor="middle" font-size="26" fill="#555555" font-family="Comic Sans MS, Segoe Print, Arial">Chapter Trust Boundary</text>

  <rect x="55" y="345" width="180" height="150" rx="18" fill="#eef6ff" stroke="#1e66b1" stroke-width="4"/>
<text x="145" y="403" text-anchor="middle" font-size="22" font-family="Comic Sans MS, Segoe Print, Arial"><tspan x="145" dy="0">Reader Context</tspan></text>
  <line x1="235" y1="420" x2="340" y2="420" stroke="#111111" stroke-width="4" marker-end="url(#arrow)"/>

  <rect x="350" y="300" width="205" height="155" rx="18" fill="#fff4df" stroke="#df7c18" stroke-width="4"/>
<text x="452" y="358" text-anchor="middle" font-size="22" font-family="Comic Sans MS, Segoe Print, Arial"><tspan x="452" dy="0">Learning</tspan><tspan x="452" dy="26">Objectives</tspan></text>
  <line x1="555" y1="378" x2="610" y2="378" stroke="#111111" stroke-width="4" marker-end="url(#arrow)"/>
  <rect x="620" y="300" width="205" height="155" rx="18" fill="#fff4df" stroke="#df7c18" stroke-width="4"/>
<text x="722" y="358" text-anchor="middle" font-size="22" font-family="Comic Sans MS, Segoe Print, Arial"><tspan x="722" dy="0">Conceptual</tspan><tspan x="722" dy="26">Foundation</tspan></text>
  <line x1="825" y1="378" x2="880" y2="378" stroke="#111111" stroke-width="4" marker-end="url(#arrow)"/>
  <rect x="890" y="300" width="205" height="155" rx="18" fill="#fff4df" stroke="#df7c18" stroke-width="4"/>
<text x="992" y="358" text-anchor="middle" font-size="22" font-family="Comic Sans MS, Segoe Print, Arial"><tspan x="992" dy="0">Architecture</tspan><tspan x="992" dy="26">Perspective</tspan></text>
  <line x1="1095" y1="378" x2="1150" y2="378" stroke="#111111" stroke-width="4" marker-end="url(#arrow)"/>
  <rect x="1160" y="300" width="205" height="155" rx="18" fill="#fff4df" stroke="#df7c18" stroke-width="4"/>
<text x="1262" y="358" text-anchor="middle" font-size="22" font-family="Comic Sans MS, Segoe Print, Arial"><tspan x="1262" dy="0">AppSec Lens</tspan></text>

  <rect x="405" y="675" width="210" height="145" rx="18" fill="#eef9ea" stroke="#2e7d32" stroke-width="4"/>
<text x="510" y="733" text-anchor="middle" font-size="22" font-family="Comic Sans MS, Segoe Print, Arial"><tspan x="510" dy="0">Developer Lens</tspan></text>
  <line x1="510" y1="675" x2="510" y2="455" stroke="#111111" stroke-width="4" marker-end="url(#arrow)"/>
  <rect x="690" y="675" width="210" height="145" rx="18" fill="#eef9ea" stroke="#2e7d32" stroke-width="4"/>
<text x="795" y="733" text-anchor="middle" font-size="22" font-family="Comic Sans MS, Segoe Print, Arial"><tspan x="795" dy="0">Pentest Lens</tspan></text>
  <line x1="795" y1="675" x2="795" y2="455" stroke="#111111" stroke-width="4" marker-end="url(#arrow)"/>
  <rect x="975" y="675" width="210" height="145" rx="18" fill="#eef9ea" stroke="#2e7d32" stroke-width="4"/>
<text x="1080" y="733" text-anchor="middle" font-size="22" font-family="Comic Sans MS, Segoe Print, Arial"><tspan x="1080" dy="0">Common Findings</tspan></text>
  <line x1="1080" y1="675" x2="1080" y2="455" stroke="#111111" stroke-width="4" marker-end="url(#arrow)"/>

  <rect x="1365" y="345" width="180" height="150" rx="18" fill="#f0f7ff" stroke="#1e66b1" stroke-width="4"/>
<text x="1455" y="403" text-anchor="middle" font-size="22" font-family="Comic Sans MS, Segoe Print, Arial"><tspan x="1455" dy="0">Secure Design</tspan><tspan x="1455" dy="26">Guidance</tspan></text>
  <line x1="1365" y1="420" x2="1255" y2="420" stroke="#111111" stroke-width="4" marker-end="url(#arrow)"/>

  <path d="M150 690 C230 610, 270 525, 345 445" fill="none" stroke="#d71920" stroke-width="4" stroke-dasharray="12 10" marker-end="url(#arrow)"/>
  <text x="140" y="735" text-anchor="middle" font-size="24" fill="#d71920" font-family="Comic Sans MS, Segoe Print, Arial">risk path</text>

  <rect x="55" y="800" width="260" height="95" rx="14" fill="#ffffff" stroke="#777777" stroke-width="3"/>
  <line x1="85" y1="835" x2="145" y2="835" stroke="#111111" stroke-width="4" marker-end="url(#arrow)"/>
  <text x="225" y="844" text-anchor="middle" font-size="22" font-family="Comic Sans MS, Segoe Print, Arial">normal flow</text>
  <line x1="85" y1="872" x2="145" y2="872" stroke="#d71920" stroke-width="4" stroke-dasharray="12 10" marker-end="url(#arrow)"/>
  <text x="225" y="881" text-anchor="middle" font-size="22" fill="#d71920" font-family="Comic Sans MS, Segoe Print, Arial">risk path</text>
</svg>
