<svg xmlns="http://www.w3.org/2000/svg" width="1600" height="760" viewBox="0 0 1600 760">
  <defs>
    <marker id="arrow" markerWidth="12" markerHeight="12" refX="10" refY="6" orient="auto" markerUnits="strokeWidth">
      <path d="M2,2 L10,6 L2,10 z" fill="#111111"/>
    </marker>
  </defs>
  <rect width="1600" height="760" fill="#fffdf7"/>
  <text x="800" y="70" text-anchor="middle" font-size="34" font-family="Comic Sans MS, Segoe Print, Arial" font-weight="700">Session Management and State: Secure Design Guidance</text>
  <rect x="270" y="135" width="1060" height="330" rx="24" fill="none" stroke="#777777" stroke-width="4" stroke-dasharray="14 12"/>
  <text x="800" y="182" text-anchor="middle" font-size="24" fill="#555555" font-family="Comic Sans MS, Segoe Print, Arial">section focus</text>

  <rect x="80" y="265" width="210" height="150" rx="18" fill="#eef6ff" stroke="#1e66b1" stroke-width="4"/>
<text x="185" y="323" text-anchor="middle" font-size="22" font-family="Comic Sans MS, Segoe Print, Arial"><tspan x="185" dy="0">context</tspan></text>
  <line x1="290" y1="340" x2="380" y2="340" stroke="#111111" stroke-width="4" marker-end="url(#arrow)"/>
  <rect x="390" y="255" width="225" height="170" rx="18" fill="#fff4df" stroke="#df7c18" stroke-width="4"/>
<text x="502" y="313" text-anchor="middle" font-size="22" font-family="Comic Sans MS, Segoe Print, Arial"><tspan x="502" dy="0">Use connection</tspan><tspan x="502" dy="26">pooling to</tspan><tspan x="502" dy="26">distributed...</tspan></text>
  <line x1="615" y1="340" x2="700" y2="340" stroke="#111111" stroke-width="4" marker-end="url(#arrow)"/>
  <rect x="710" y="255" width="225" height="170" rx="18" fill="#fff4df" stroke="#df7c18" stroke-width="4"/>
<text x="822" y="313" text-anchor="middle" font-size="22" font-family="Comic Sans MS, Segoe Print, Arial"><tspan x="822" dy="0">Implement</tspan><tspan x="822" dy="26">circuit breaker</tspan><tspan x="822" dy="26">for store...</tspan></text>
  <line x1="935" y1="340" x2="1020" y2="340" stroke="#111111" stroke-width="4" marker-end="url(#arrow)"/>
  <rect x="1030" y="255" width="225" height="170" rx="18" fill="#fff4df" stroke="#df7c18" stroke-width="4"/>
<text x="1142" y="313" text-anchor="middle" font-size="22" font-family="Comic Sans MS, Segoe Print, Arial"><tspan x="1142" dy="0">Set appropriate</tspan><tspan x="1142" dy="26">TTL on cache</tspan><tspan x="1142" dy="26">entries</tspan></text>
  <line x1="1255" y1="340" x2="1340" y2="340" stroke="#111111" stroke-width="4" marker-end="url(#arrow)"/>
  <rect x="1350" y="265" width="190" height="150" rx="18" fill="#eef9ea" stroke="#2e7d32" stroke-width="4"/>
<text x="1445" y="323" text-anchor="middle" font-size="22" font-family="Comic Sans MS, Segoe Print, Arial"><tspan x="1445" dy="0">outcome</tspan></text>

  <rect x="390" y="545" width="225" height="135" rx="18" fill="#eef9ea" stroke="#2e7d32" stroke-width="4"/>
<text x="502" y="603" text-anchor="middle" font-size="22" font-family="Comic Sans MS, Segoe Print, Arial"><tspan x="502" dy="0">Monitor store</tspan><tspan x="502" dy="26">latency and</tspan><tspan x="502" dy="26">capacity</tspan></text>
  <line x1="502" y1="545" x2="502" y2="425" stroke="#111111" stroke-width="4" marker-end="url(#arrow)"/>
  <rect x="985" y="545" width="225" height="135" rx="18" fill="#fef8df" stroke="#d9a300" stroke-width="4"/>
<text x="1097" y="603" text-anchor="middle" font-size="22" font-family="Comic Sans MS, Segoe Print, Arial"><tspan x="1097" dy="0">Pros: Automatic</tspan><tspan x="1097" dy="26">inclusion in</tspan><tspan x="1097" dy="26">requests,...</tspan></text>
  <line x1="1097" y1="545" x2="1097" y2="425" stroke="#111111" stroke-width="4" marker-end="url(#arrow)"/>

  <path d="M185 610 C250 560, 310 480, 390 408" fill="none" stroke="#d71920" stroke-width="4" stroke-dasharray="12 10" marker-end="url(#arrow)"/>
  <text x="165" y="655" text-anchor="middle" font-size="23" fill="#d71920" font-family="Comic Sans MS, Segoe Print, Arial">risk path</text>
</svg>
